<?xml version="1.0" encoding="utf-8"?>
<!-- Generator: Adobe Illustrator 22.0.1, SVG Export Plug-In . SVG Version: 6.00 Build 0)  -->
<svg version="1.1" id="Layer_1" xmlns="http://www.w3.org/2000/svg" xmlns:xlink="http://www.w3.org/1999/xlink" x="0px" y="0px"
	 viewBox="0 0 337.1 166.3" style="enable-background:new 0 0 337.1 166.3;" xml:space="preserve">
<style type="text/css">
	.st0{clip-path:url(#SVGID_4_);fill:#FFFFFF;}
	.st1{fill:#FFFFFF;}
	.st2{clip-path:url(#SVGID_16_);}
	.st3{clip-path:url(#SVGID_30_);fill:url(#SVGID_31_);}
	.st4{fill:#145D8C;}
</style>
<g>
	<g>
		<defs>
			<path id="SVGID_25_" d="M275.6,34.7c0,0,25,3.8,23,5.7c-6.3-2.5-25.6-0.5-25.6-0.5l2,31.1l30.2-22.4l-5.7-28.4L275.6,34.7z"/>
		</defs>
		<linearGradient id="SVGID_2_" gradientUnits="userSpaceOnUse" x1="4.0678" y1="135.9681" x2="309.5954" y2="38.4806">
			<stop  offset="0" style="stop-color:#FFDB28"/>
			<stop  offset="1" style="stop-color:#EB5A6A"/>
		</linearGradient>
		<use xlink:href="#SVGID_25_"  style="overflow:visible;fill:url(#SVGID_2_);"/>
		<clipPath id="SVGID_4_">
			<use xlink:href="#SVGID_25_"  style="overflow:visible;"/>
		</clipPath>
	</g>
	<g>
		<defs>
			<path id="SVGID_28_" d="M57.2,104.4c0.2-0.3,0.4-0.6,0.6-0.9l0,0C57.6,103.7,57.4,104,57.2,104.4"/>
		</defs>
		<linearGradient id="SVGID_6_" gradientUnits="userSpaceOnUse" x1="-0.262" y1="122.3984" x2="305.2656" y2="24.911">
			<stop  offset="0" style="stop-color:#FFDB28"/>
			<stop  offset="1" style="stop-color:#EB5A6A"/>
		</linearGradient>
		<use xlink:href="#SVGID_28_"  style="overflow:visible;fill:url(#SVGID_6_);"/>
		<clipPath id="SVGID_8_">
			<use xlink:href="#SVGID_28_"  style="overflow:visible;"/>
		</clipPath>
		
			<linearGradient id="SVGID_10_" gradientUnits="userSpaceOnUse" x1="130.1556" y1="531.1299" x2="435.6832" y2="433.6425" gradientTransform="matrix(0.6016 0 0 -0.6016 -9.0284 427.2359)">
			<stop  offset="0" style="stop-color:#FFDB28"/>
			<stop  offset="1" style="stop-color:#EB5A6A"/>
		</linearGradient>
		<rect x="57.2" y="103.5" style="clip-path:url(#SVGID_8_);fill:url(#SVGID_10_);" width="0.6" height="0.9"/>
	</g>
	<g>
		<defs>
			<path id="SVGID_32_" d="M43.7,68.9c-5.1-0.1-10.5,4.2-10.3,10.9c0.2,6.4,5.3,10.5,11,10.4c6-0.2,10.6-5,10.4-11
				c-0.2-5.9-4.8-10.2-10.7-10.2C44,68.9,43.9,68.9,43.7,68.9"/>
		</defs>
		<linearGradient id="SVGID_12_" gradientUnits="userSpaceOnUse" x1="-8.5875" y1="96.3062" x2="296.9401" y2="-1.1812">
			<stop  offset="0" style="stop-color:#FFDB28"/>
			<stop  offset="1" style="stop-color:#EB5A6A"/>
		</linearGradient>
		<use xlink:href="#SVGID_32_"  style="overflow:visible;fill:url(#SVGID_12_);"/>
		<clipPath id="SVGID_14_">
			<use xlink:href="#SVGID_32_"  style="overflow:visible;"/>
		</clipPath>
	</g>
	<g>
		<defs>
			<path id="SVGID_35_" d="M66.7,66.3c-0.8,0-1.7,0.8-2.2,2.2C60.9,77.9,52.4,87.3,46,89.2c-9,2.7-18.3,19.3-18.3,24.4
				c0,2,1.1,2.6,2.1,2.5c1.5-0.1,3.9-3.6,4.5-4.4c4.8-6.1,11.6-11.4,23.5-15.6c1.1-0.4,1.6,0,0.9,0.6c-2.1,1.8-9,6.7-12.7,13.8
				c-2.6,5-4.8,13-2.3,24.6c0.2,1.1,0.6,3.2,1.3,4.6c0.2,0.5,0.9,0.9,2.2,0.8c0.9-0.1,1.7-0.7,1.9-1.4c0.2-1,0.2-1.6,0.3-2.6
				c0.4-3.6,0.9-7.3,1.6-10.9c0.2-1.1,0.5-2.2,0.8-3.3c0.8-2.7,2.3-7.3,5.2-8.5c3.9-1.6,9,4.8,11,7.5c3,4.2,5,8.7,7.2,13.1
				c0.5,1,1,1.7,1.5,2.7c0.3,0.4,1.2,0.9,2,0.8c0.8-0.1,1.5-0.6,1.6-1.2c0.1-1.5-0.3-3.6-0.5-4.7c-0.9-5.2-3-9.8-5.8-14.6
				c-3.1-5.5-5.6-9.6-8.9-15.1c-0.2-0.3-0.4-0.7-0.6-1.1c0,0,0,0,0-0.1c-0.2-0.4-0.3-0.7-0.4-1c-1.2-3.3-2.7-6.3-2.4-9.1
				c0.3-2.4,7.5-13.4,6.7-23.2C68.2,67.6,67.6,66.3,66.7,66.3C66.7,66.3,66.7,66.3,66.7,66.3"/>
		</defs>
		<linearGradient id="SVGID_16_" gradientUnits="userSpaceOnUse" x1="0.6053" y1="125.1167" x2="306.133" y2="27.6293">
			<stop  offset="0" style="stop-color:#FFDB28"/>
			<stop  offset="1" style="stop-color:#EB5A6A"/>
		</linearGradient>
		<use xlink:href="#SVGID_35_"  style="overflow:visible;fill:url(#SVGID_16_);"/>
		<clipPath id="SVGID_18_">
			<use xlink:href="#SVGID_35_"  style="overflow:visible;"/>
		</clipPath>
	</g>
	<g>
		<defs>
			<path id="SVGID_38_" d="M69.2,61.8c0,0,21.3-30.9,91.4,0.2c-9.1-4.6-37.4-18.1-60.7-18.1C86.4,43.8,74.6,48.4,69.2,61.8"/>
		</defs>
		<linearGradient id="SVGID_20_" gradientUnits="userSpaceOnUse" x1="-8.6781" y1="96.0223" x2="296.8495" y2="-1.4651">
			<stop  offset="0" style="stop-color:#FFDB28"/>
			<stop  offset="1" style="stop-color:#EB5A6A"/>
		</linearGradient>
		<use xlink:href="#SVGID_38_"  style="overflow:visible;fill:url(#SVGID_20_);"/>
		<clipPath id="SVGID_22_">
			<use xlink:href="#SVGID_38_"  style="overflow:visible;"/>
		</clipPath>
	</g>
	<g>
		<defs>
			<path id="SVGID_41_" d="M263.8,81.3c9.1-0.2,11.1-10.1,11.1-10.1C271.2,76.9,266.1,79.8,263.8,81.3"/>
		</defs>
		<linearGradient id="SVGID_24_" gradientUnits="userSpaceOnUse" x1="11.3523" y1="158.7979" x2="316.8799" y2="61.3105">
			<stop  offset="0" style="stop-color:#FFDB28"/>
			<stop  offset="1" style="stop-color:#EB5A6A"/>
		</linearGradient>
		<use xlink:href="#SVGID_41_"  style="overflow:visible;fill:url(#SVGID_24_);"/>
		<clipPath id="SVGID_26_">
			<use xlink:href="#SVGID_41_"  style="overflow:visible;"/>
		</clipPath>
	</g>
</g>
<path class="st4" d="M260.6,126.3h-1.4l3.6,8.3l-0.7,1.8c-0.2,0.5-0.4,0.8-0.6,1.1c-0.2,0.3-0.6,0.4-1,0.4c-0.3,0-0.6,0-0.9-0.1
	l-0.1,1.1c0.4,0.1,0.7,0.1,1.1,0.1c0.7,0,1.3-0.2,1.7-0.6c0.4-0.4,0.7-0.9,1-1.5l4.2-10.5h-1.3l-2.6,7.1h0L260.6,126.3z
	 M256.5,131.8c-0.1,0.4-0.3,0.8-0.6,1.1c-0.3,0.3-0.6,0.5-1,0.7c-0.4,0.2-0.8,0.3-1.3,0.3c-0.5,0-0.9-0.1-1.3-0.3
	c-0.4-0.2-0.7-0.4-1-0.7c-0.3-0.3-0.5-0.7-0.7-1.1c-0.2-0.4-0.2-0.9-0.2-1.3c0-0.5,0.1-0.9,0.2-1.3c0.2-0.4,0.4-0.8,0.7-1.1
	c0.3-0.3,0.6-0.5,1-0.7c0.4-0.2,0.8-0.3,1.3-0.3c0.5,0,0.9,0.1,1.3,0.3c0.4,0.2,0.7,0.4,1,0.7c0.3,0.3,0.5,0.7,0.6,1.1
	c0.1,0.4,0.2,0.8,0.2,1.3C256.7,131,256.6,131.4,256.5,131.8 M250.5,133.3L250.5,133.3c0.4,0.5,0.9,0.9,1.4,1.2
	c0.6,0.3,1.2,0.4,1.8,0.4c0.7,0,1.2-0.1,1.8-0.3c0.5-0.2,1-0.5,1.4-0.9c0.4-0.4,0.7-0.9,0.9-1.4c0.2-0.5,0.3-1.1,0.3-1.7
	c0-0.6-0.1-1.2-0.3-1.7c-0.2-0.5-0.5-1-0.9-1.4c-0.4-0.4-0.8-0.7-1.4-0.9c-0.5-0.2-1.1-0.3-1.8-0.3c-0.6,0-1.2,0.1-1.8,0.4
	c-0.6,0.3-1,0.7-1.4,1.2h-0.1v-1.4h-1.2V139h1.2V133.3z M245,130.5v0.6c0,0.4-0.1,0.7-0.2,1.1c-0.1,0.3-0.3,0.6-0.5,0.9
	c-0.2,0.3-0.5,0.5-0.8,0.6c-0.3,0.1-0.7,0.2-1.1,0.2c-0.2,0-0.5,0-0.7-0.1c-0.2-0.1-0.4-0.1-0.6-0.3c-0.2-0.1-0.3-0.3-0.5-0.5
	c-0.1-0.2-0.2-0.5-0.2-0.7c0-0.4,0.1-0.7,0.4-1c0.3-0.2,0.6-0.4,1-0.5c0.4-0.1,0.9-0.2,1.4-0.2c0.5,0,1-0.1,1.5-0.1H245z M245,129.5
	c-0.8,0-1.5,0-2.2,0.1c-0.7,0.1-1.3,0.2-1.9,0.4c-0.5,0.2-1,0.5-1.3,0.8c-0.3,0.4-0.5,0.9-0.5,1.5c0,0.5,0.1,0.9,0.3,1.2
	c0.2,0.3,0.4,0.6,0.7,0.8c0.3,0.2,0.6,0.3,0.9,0.4c0.3,0.1,0.7,0.1,1,0.1c0.7,0,1.3-0.1,1.7-0.4c0.5-0.2,0.9-0.6,1.3-1.2h0
	c0,0.2,0,0.5,0,0.7c0,0.2,0.1,0.5,0.1,0.7h1.1c0-0.2-0.1-0.5-0.1-0.9c0-0.3,0-0.7,0-1v-3.7c0-0.5-0.1-1-0.3-1.3
	c-0.2-0.4-0.4-0.7-0.7-0.9c-0.3-0.2-0.6-0.4-1-0.6c-0.4-0.1-0.8-0.2-1.3-0.2c-0.7,0-1.4,0.1-1.9,0.3c-0.6,0.2-1,0.5-1.4,0.9l0.7,0.8
	c0.3-0.3,0.7-0.5,1.1-0.7c0.4-0.2,0.9-0.3,1.4-0.3c0.7,0,1.3,0.2,1.7,0.5c0.4,0.4,0.6,0.9,0.6,1.6V129.5z M233.5,128.2v6.5h1.2v-4.3
	c0-0.6,0.1-1,0.2-1.4c0.1-0.4,0.3-0.7,0.5-1c0.2-0.3,0.5-0.4,0.8-0.6c0.3-0.1,0.6-0.2,0.9-0.2c0.2,0,0.3,0,0.5,0
	c0.2,0,0.3,0,0.4,0.1l0.2-1.2c-0.1,0-0.3-0.1-0.4-0.1c-0.1,0-0.3,0-0.4,0c-0.6,0-1.1,0.2-1.6,0.5c-0.5,0.3-0.8,0.7-1.1,1.2h0
	c0-0.2,0-0.4,0-0.7c0-0.3,0-0.5-0.1-0.8h-1.2c0,0.3,0,0.6,0.1,1C233.5,127.6,233.5,127.9,233.5,128.2 M230.6,128.6
	c-0.2-0.5-0.4-0.9-0.8-1.3c-0.3-0.4-0.8-0.7-1.3-0.9c-0.5-0.2-1.1-0.3-1.7-0.3c-0.6,0-1.1,0.1-1.7,0.3c-0.5,0.2-1,0.5-1.3,0.9
	c-0.4,0.4-0.7,0.9-0.9,1.4c-0.2,0.5-0.3,1.1-0.3,1.7c0,0.6,0.1,1.2,0.3,1.8c0.2,0.5,0.5,1,0.9,1.4c0.4,0.4,0.8,0.7,1.4,0.9
	c0.5,0.2,1.1,0.3,1.7,0.3c0.7,0,1.3-0.1,1.9-0.4c0.6-0.3,1.2-0.7,1.7-1.4l-0.9-0.7c-0.2,0.4-0.6,0.7-1,1c-0.5,0.3-1,0.4-1.6,0.4
	c-0.4,0-0.8-0.1-1.2-0.2c-0.4-0.2-0.7-0.4-1-0.7c-0.3-0.3-0.5-0.6-0.6-1c-0.2-0.4-0.2-0.8-0.3-1.2h6.9c0-0.1,0-0.2,0-0.3v-0.3
	C230.9,129.7,230.8,129.1,230.6,128.6 M224,129.9c0-0.4,0.1-0.7,0.3-1c0.2-0.3,0.4-0.6,0.6-0.9c0.3-0.3,0.6-0.5,0.9-0.6
	c0.3-0.1,0.7-0.2,1.1-0.2c0.9,0,1.5,0.3,2,0.8c0.5,0.5,0.7,1.2,0.8,2H224z M214.1,127.7v-6.5h-1.2v13.5h1.2v-4.3
	c0-0.6,0.1-1,0.2-1.5c0.1-0.4,0.3-0.8,0.6-1c0.2-0.3,0.5-0.5,0.8-0.6c0.3-0.1,0.6-0.2,0.9-0.2c0.4,0,0.8,0.1,1.1,0.2
	c0.3,0.1,0.5,0.3,0.7,0.6c0.2,0.3,0.3,0.6,0.4,0.9c0.1,0.4,0.1,0.8,0.1,1.2v4.6h1.2v-5.1c0-1-0.3-1.9-0.8-2.5
	c-0.5-0.6-1.3-0.9-2.4-0.9c-0.6,0-1.2,0.1-1.7,0.4C214.7,126.8,214.4,127.2,214.1,127.7L214.1,127.7z M207.1,123.2h4.2V122h-9.8v1.1
	h4.2v11.5h1.3V123.2z M195.7,121.2h-1.2v13.5h1.2V121.2z M190.2,130.5v0.6c0,0.4-0.1,0.7-0.2,1.1c-0.1,0.3-0.3,0.6-0.5,0.9
	c-0.2,0.3-0.5,0.5-0.8,0.6c-0.3,0.1-0.7,0.2-1.1,0.2c-0.2,0-0.5,0-0.7-0.1c-0.2-0.1-0.4-0.1-0.6-0.3c-0.2-0.1-0.3-0.3-0.5-0.5
	c-0.1-0.2-0.2-0.5-0.2-0.7c0-0.4,0.1-0.7,0.4-1c0.3-0.2,0.6-0.4,1-0.5c0.4-0.1,0.9-0.2,1.4-0.2c0.5,0,1-0.1,1.5-0.1H190.2z
	 M190.2,129.5c-0.8,0-1.5,0-2.2,0.1c-0.7,0.1-1.3,0.2-1.9,0.4c-0.5,0.2-1,0.5-1.3,0.8c-0.3,0.4-0.5,0.9-0.5,1.5
	c0,0.5,0.1,0.9,0.3,1.2c0.2,0.3,0.4,0.6,0.7,0.8c0.3,0.2,0.6,0.3,0.9,0.4c0.3,0.1,0.7,0.1,1,0.1c0.7,0,1.3-0.1,1.7-0.4
	c0.5-0.2,0.9-0.6,1.3-1.2h0c0,0.2,0,0.5,0,0.7c0,0.2,0.1,0.5,0.1,0.7h1.1c0-0.2-0.1-0.5-0.1-0.9c0-0.3,0-0.7,0-1v-3.7
	c0-0.5-0.1-1-0.2-1.3c-0.2-0.4-0.4-0.7-0.7-0.9c-0.3-0.2-0.6-0.4-1-0.6c-0.4-0.1-0.8-0.2-1.3-0.2c-0.7,0-1.4,0.1-1.9,0.3
	c-0.6,0.2-1,0.5-1.4,0.9l0.7,0.8c0.3-0.3,0.7-0.5,1.1-0.7c0.4-0.2,0.9-0.3,1.4-0.3c0.7,0,1.3,0.2,1.7,0.5c0.4,0.4,0.6,0.9,0.6,1.6
	V129.5z M174.5,126.3c0,0.3,0,0.6,0.1,1c0,0.4,0,0.6,0,0.9v6.5h1.2v-4.3c0-0.6,0.1-1,0.2-1.5c0.1-0.4,0.3-0.8,0.6-1
	c0.2-0.3,0.5-0.5,0.8-0.6c0.3-0.1,0.6-0.2,0.9-0.2c0.4,0,0.8,0.1,1.1,0.2c0.3,0.1,0.5,0.3,0.7,0.6c0.2,0.3,0.3,0.6,0.4,0.9
	c0.1,0.4,0.1,0.8,0.1,1.2v4.6h1.2v-5.1c0-1-0.3-1.9-0.8-2.5c-0.5-0.6-1.3-0.9-2.4-0.9c-0.6,0-1.2,0.2-1.7,0.5
	c-0.5,0.3-0.9,0.7-1.2,1.2h0c0-0.2,0-0.4,0-0.7c0-0.3,0-0.5-0.1-0.8H174.5z M170.4,131.8c-0.1,0.4-0.4,0.8-0.6,1.1
	c-0.3,0.3-0.6,0.5-1,0.7c-0.4,0.2-0.8,0.3-1.3,0.3c-0.5,0-0.9-0.1-1.3-0.3c-0.4-0.2-0.7-0.4-1-0.7c-0.3-0.3-0.5-0.7-0.6-1.1
	c-0.1-0.4-0.2-0.8-0.2-1.3c0-0.5,0.1-0.9,0.2-1.3c0.1-0.4,0.4-0.8,0.6-1.1c0.3-0.3,0.6-0.5,1-0.7c0.4-0.2,0.8-0.3,1.3-0.3
	c0.5,0,0.9,0.1,1.3,0.3c0.4,0.2,0.7,0.4,1,0.7c0.3,0.3,0.5,0.7,0.6,1.1c0.1,0.4,0.2,0.8,0.2,1.3C170.7,131,170.6,131.4,170.4,131.8
	 M171.6,128.7c-0.2-0.5-0.5-1-0.9-1.4c-0.4-0.4-0.9-0.7-1.4-0.9c-0.5-0.2-1.1-0.3-1.8-0.3c-0.6,0-1.2,0.1-1.8,0.3
	c-0.5,0.2-1,0.5-1.4,0.9c-0.4,0.4-0.7,0.9-0.9,1.4c-0.2,0.5-0.3,1.1-0.3,1.7c0,0.6,0.1,1.2,0.3,1.8c0.2,0.5,0.5,1,0.9,1.4
	c0.4,0.4,0.9,0.7,1.4,0.9c0.5,0.2,1.1,0.3,1.8,0.3c0.7,0,1.3-0.1,1.8-0.3c0.5-0.2,1-0.5,1.4-0.9c0.4-0.4,0.7-0.9,0.9-1.4
	c0.2-0.5,0.3-1.1,0.3-1.8C171.9,129.9,171.8,129.3,171.6,128.7 M160.4,122.5c-0.2-0.2-0.4-0.2-0.6-0.2c-0.2,0-0.4,0.1-0.6,0.2
	c-0.2,0.2-0.3,0.4-0.3,0.6s0.1,0.5,0.3,0.6c0.2,0.2,0.4,0.2,0.6,0.2c0.2,0,0.4-0.1,0.6-0.2c0.2-0.2,0.3-0.4,0.3-0.6
	S160.6,122.6,160.4,122.5 M160.4,126.3h-1.2v8.4h1.2V126.3z M157.3,126.3h-2.4V124h-1.2v2.4H152v1h1.7v5.2c0,0.5,0.1,0.8,0.2,1.1
	c0.1,0.3,0.3,0.5,0.5,0.7c0.2,0.2,0.4,0.3,0.7,0.3c0.2,0.1,0.5,0.1,0.7,0.1c0.3,0,0.5,0,0.8-0.1c0.2,0,0.5-0.1,0.7-0.2l-0.1-1.1
	c-0.2,0.1-0.3,0.2-0.5,0.2c-0.2,0-0.4,0.1-0.5,0.1c-0.2,0-0.3,0-0.5-0.1c-0.2,0-0.3-0.1-0.4-0.2c-0.1-0.1-0.2-0.3-0.3-0.5
	c-0.1-0.2-0.1-0.5-0.1-0.8v-4.9h2.4V126.3z M149.4,130.5v0.6c0,0.4-0.1,0.7-0.2,1.1c-0.1,0.3-0.3,0.6-0.5,0.9
	c-0.2,0.3-0.5,0.5-0.8,0.6c-0.3,0.1-0.7,0.2-1.1,0.2c-0.2,0-0.5,0-0.7-0.1c-0.2-0.1-0.4-0.1-0.6-0.3c-0.2-0.1-0.3-0.3-0.5-0.5
	c-0.1-0.2-0.2-0.5-0.2-0.7c0-0.4,0.1-0.7,0.4-1c0.3-0.2,0.6-0.4,1-0.5c0.4-0.1,0.9-0.2,1.4-0.2c0.5,0,1-0.1,1.5-0.1H149.4z
	 M149.4,129.5c-0.8,0-1.5,0-2.2,0.1c-0.7,0.1-1.3,0.2-1.9,0.4c-0.5,0.2-1,0.5-1.3,0.8c-0.3,0.4-0.5,0.9-0.5,1.5
	c0,0.5,0.1,0.9,0.3,1.2c0.2,0.3,0.4,0.6,0.7,0.8c0.3,0.2,0.6,0.3,0.9,0.4c0.3,0.1,0.7,0.1,1,0.1c0.7,0,1.3-0.1,1.7-0.4
	c0.5-0.2,0.9-0.6,1.3-1.2h0c0,0.2,0,0.5,0,0.7c0,0.2,0.1,0.5,0.1,0.7h1.1c0-0.2-0.1-0.5-0.1-0.9c0-0.3,0-0.7,0-1v-3.7
	c0-0.5-0.1-1-0.2-1.3c-0.2-0.4-0.4-0.7-0.7-0.9c-0.3-0.2-0.6-0.4-1-0.6c-0.4-0.1-0.8-0.2-1.3-0.2c-0.7,0-1.4,0.1-1.9,0.3
	c-0.6,0.2-1,0.5-1.4,0.9l0.7,0.8c0.3-0.3,0.7-0.5,1.1-0.7c0.4-0.2,0.9-0.3,1.4-0.3c0.7,0,1.3,0.2,1.7,0.5c0.4,0.4,0.6,0.9,0.6,1.6
	V129.5z M140,131.8c-0.1,0.4-0.4,0.8-0.6,1.1c-0.3,0.3-0.6,0.5-1,0.7c-0.4,0.2-0.8,0.3-1.3,0.3c-0.5,0-0.9-0.1-1.3-0.3
	c-0.4-0.2-0.7-0.4-1-0.7c-0.3-0.3-0.5-0.7-0.7-1.1c-0.2-0.4-0.2-0.9-0.2-1.3c0-0.5,0.1-0.9,0.2-1.3c0.2-0.4,0.4-0.8,0.7-1.1
	c0.3-0.3,0.6-0.5,1-0.7c0.4-0.2,0.8-0.3,1.3-0.3c0.5,0,0.9,0.1,1.3,0.3c0.4,0.2,0.7,0.4,1,0.7c0.3,0.3,0.5,0.7,0.6,1.1
	c0.1,0.4,0.2,0.8,0.2,1.3C140.2,131,140.2,131.4,140,131.8 M134,133.3L134,133.3c0.4,0.5,0.9,0.9,1.4,1.2c0.6,0.3,1.2,0.4,1.8,0.4
	c0.7,0,1.2-0.1,1.8-0.3c0.5-0.2,1-0.5,1.4-0.9c0.4-0.4,0.7-0.9,0.9-1.4c0.2-0.5,0.3-1.1,0.3-1.7c0-0.6-0.1-1.2-0.3-1.7
	c-0.2-0.5-0.5-1-0.9-1.4c-0.4-0.4-0.8-0.7-1.4-0.9c-0.5-0.2-1.1-0.3-1.8-0.3c-0.6,0-1.2,0.1-1.8,0.4c-0.6,0.3-1,0.7-1.4,1.2H134
	v-1.4h-1.2V139h1.2V133.3z M129.7,134.7c0-0.3,0-0.6-0.1-1c0-0.4,0-0.7,0-0.9v-6.5h-1.2v4.3c0,0.6-0.1,1-0.2,1.5
	c-0.1,0.4-0.3,0.8-0.6,1c-0.2,0.3-0.5,0.5-0.8,0.6c-0.3,0.1-0.6,0.2-0.9,0.2c-0.4,0-0.8-0.1-1.1-0.2c-0.3-0.1-0.5-0.3-0.7-0.6
	c-0.2-0.3-0.3-0.6-0.4-0.9c-0.1-0.4-0.1-0.8-0.1-1.2v-4.6h-1.2v5.1c0,1,0.3,1.9,0.8,2.5c0.5,0.6,1.3,0.9,2.4,0.9
	c0.6,0,1.2-0.2,1.7-0.5c0.5-0.3,0.9-0.7,1.2-1.2h0c0,0.2,0,0.4,0,0.7c0,0.3,0,0.5,0.1,0.8H129.7z M120.5,127.6
	c-0.4-0.5-0.8-0.8-1.4-1.1c-0.6-0.2-1.1-0.4-1.7-0.4c-0.7,0-1.3,0.1-1.8,0.3c-0.5,0.2-1,0.5-1.4,0.9c-0.4,0.4-0.7,0.9-0.9,1.4
	c-0.2,0.5-0.3,1.1-0.3,1.7c0,0.6,0.1,1.2,0.3,1.8c0.2,0.5,0.5,1,0.9,1.4c0.4,0.4,0.9,0.7,1.4,0.9c0.5,0.2,1.2,0.3,1.8,0.3
	c0.7,0,1.4-0.1,1.9-0.4c0.5-0.3,1-0.6,1.3-1.1l-0.9-0.7c-0.2,0.3-0.5,0.6-0.9,0.8c-0.4,0.2-0.8,0.3-1.4,0.3c-0.5,0-0.9-0.1-1.3-0.3
	c-0.4-0.2-0.7-0.4-1-0.7c-0.3-0.3-0.5-0.7-0.6-1.1c-0.1-0.4-0.2-0.8-0.2-1.3c0-0.5,0.1-0.9,0.2-1.3c0.1-0.4,0.4-0.8,0.6-1.1
	c0.3-0.3,0.6-0.5,1-0.7c0.4-0.2,0.8-0.3,1.3-0.3c0.5,0,0.9,0.1,1.3,0.3c0.4,0.2,0.7,0.5,0.9,0.8L120.5,127.6z M111.5,127.6
	c-0.4-0.5-0.8-0.8-1.4-1.1c-0.6-0.2-1.1-0.4-1.7-0.4c-0.7,0-1.3,0.1-1.8,0.3c-0.5,0.2-1,0.5-1.4,0.9c-0.4,0.4-0.7,0.9-0.9,1.4
	c-0.2,0.5-0.3,1.1-0.3,1.7c0,0.6,0.1,1.2,0.3,1.8c0.2,0.5,0.5,1,0.9,1.4c0.4,0.4,0.9,0.7,1.4,0.9c0.5,0.2,1.2,0.3,1.8,0.3
	c0.7,0,1.3-0.1,1.9-0.4c0.5-0.3,1-0.6,1.3-1.1l-0.9-0.7c-0.2,0.3-0.5,0.6-0.9,0.8c-0.4,0.2-0.8,0.3-1.4,0.3c-0.5,0-0.9-0.1-1.3-0.3
	c-0.4-0.2-0.7-0.4-1-0.7c-0.3-0.3-0.5-0.7-0.6-1.1c-0.2-0.4-0.2-0.8-0.2-1.3c0-0.5,0.1-0.9,0.2-1.3c0.1-0.4,0.4-0.8,0.6-1.1
	c0.3-0.3,0.6-0.5,1-0.7c0.4-0.2,0.8-0.3,1.3-0.3c0.5,0,0.9,0.1,1.3,0.3c0.4,0.2,0.7,0.5,0.9,0.8L111.5,127.6z M100.2,130.5
	c-0.2,0.7-0.6,1.2-1,1.7c-0.5,0.5-1,0.9-1.7,1.2c-0.7,0.3-1.4,0.4-2.2,0.4c-0.8,0-1.5-0.1-2.2-0.4c-0.6-0.3-1.2-0.7-1.7-1.2
	c-0.5-0.5-0.8-1.1-1-1.7c-0.2-0.7-0.4-1.4-0.4-2.1c0-0.7,0.1-1.4,0.4-2.1c0.2-0.7,0.6-1.3,1-1.8c0.5-0.5,1-0.9,1.7-1.2
	c0.6-0.3,1.4-0.4,2.2-0.4c0.8,0,1.5,0.1,2.2,0.4c0.6,0.3,1.2,0.7,1.7,1.2c0.5,0.5,0.8,1.1,1,1.8c0.2,0.7,0.4,1.4,0.4,2.1
	C100.6,129.1,100.5,129.8,100.2,130.5 M101.5,125.7c-0.3-0.8-0.8-1.5-1.4-2.1c-0.6-0.6-1.3-1.1-2.1-1.4c-0.8-0.3-1.7-0.5-2.6-0.5
	c-0.9,0-1.8,0.2-2.6,0.5c-0.8,0.3-1.5,0.8-2.1,1.4c-0.6,0.6-1.1,1.3-1.4,2.1c-0.3,0.8-0.5,1.7-0.5,2.7c0,1,0.2,1.8,0.5,2.7
	c0.3,0.8,0.8,1.5,1.4,2.1c0.6,0.6,1.3,1.1,2.1,1.4c0.8,0.3,1.7,0.5,2.6,0.5c0.9,0,1.8-0.2,2.6-0.5c0.8-0.3,1.5-0.8,2.1-1.4
	c0.6-0.6,1.1-1.3,1.4-2.1c0.3-0.8,0.5-1.7,0.5-2.7C102,127.4,101.8,126.5,101.5,125.7"/>
<g>
	<path class="st4" d="M128.8,115c-2.3,1.1-4.8,2-7.6,2.6c-2.8,0.6-5.9,0.9-9.5,0.9c-3.7,0-7-0.6-10-1.8c-3-1.2-5.6-2.8-7.8-4.9
		c-2.2-2.1-3.9-4.6-5.1-7.6c-1.2-2.9-1.8-6.2-1.8-9.7c0-3.6,0.6-6.9,1.9-9.8c1.3-2.9,3-5.4,5.2-7.5c2.2-2,4.8-3.6,7.8-4.7
		c3-1.1,6.2-1.7,9.7-1.7c3.6,0,6.9,0.5,10,1.6c3,1,5.4,2.4,7.3,4.1l-5.6,6c-1.2-1.3-2.8-2.4-4.8-3.3c-2.1-0.9-4.3-1.3-6.8-1.3
		c-2.4,0-4.6,0.4-6.5,1.3c-1.9,0.9-3.6,2-5,3.5c-1.4,1.5-2.4,3.2-3.2,5.2c-0.7,2-1.1,4.2-1.1,6.5c0,2.4,0.4,4.7,1.1,6.7
		c0.7,2,1.8,3.8,3.2,5.3c1.4,1.5,3.1,2.7,5.1,3.5c2,0.8,4.2,1.2,6.8,1.2c3.5,0,6.5-0.5,9-1.6V98.2h-9.5v-6.7h17.3V115z"/>
	<path class="st4" d="M138.2,86.7h7.4v5.1h0.1c0.9-1.8,2-3.2,3.6-4.4c1.5-1.1,3.3-1.7,5.4-1.7c0.3,0,0.6,0,1,0
		c0.3,0,0.6,0.1,0.9,0.2v7c-0.5-0.1-1-0.2-1.3-0.3c-0.4,0-0.7-0.1-1.1-0.1c-1.8,0-3.2,0.3-4.2,1c-1.1,0.6-1.9,1.4-2.5,2.3
		c-0.6,0.9-1,1.8-1.2,2.8c-0.2,0.9-0.3,1.7-0.3,2.2v16.4h-7.7V86.7z"/>
	<path class="st4" d="M160.5,76.2c0-1.2,0.5-2.3,1.4-3.2c0.9-0.9,2.1-1.4,3.5-1.4s2.6,0.4,3.6,1.3c1,0.9,1.4,2,1.4,3.3
		c0,1.3-0.5,2.4-1.4,3.3c-1,0.9-2.1,1.3-3.6,1.3s-2.6-0.5-3.5-1.4C161,78.5,160.5,77.5,160.5,76.2z M161.6,86.7h7.7v30.7h-7.7V86.7z
		"/>
	<path class="st4" d="M179.9,92.8H174v-6.1h5.8v-4.5c0-1.8,0.2-3.6,0.6-5.3c0.4-1.7,1.1-3.2,2-4.4c1-1.3,2.2-2.3,3.8-3
		c1.6-0.7,3.6-1.1,6-1.1c0.9,0,1.6,0,2.1,0.1c0.6,0.1,1.2,0.2,1.8,0.4l-0.5,6.5c-0.4-0.1-0.9-0.2-1.4-0.3c-0.5-0.1-1-0.1-1.6-0.1
		c-1.1,0-2,0.2-2.7,0.6c-0.7,0.4-1.2,1-1.6,1.7c-0.4,0.7-0.6,1.4-0.7,2.2c-0.1,0.8-0.2,1.6-0.2,2.4v5h7.1v6.1h-7.1v24.6h-7.7V92.8z"
		/>
	<path class="st4" d="M203.1,92.8h-5.8v-6.1h5.8v-4.5c0-1.8,0.2-3.6,0.6-5.3c0.4-1.7,1.1-3.2,2-4.4c1-1.3,2.2-2.3,3.8-3
		c1.6-0.7,3.6-1.1,6-1.1c0.9,0,1.6,0,2.1,0.1c0.6,0.1,1.2,0.2,1.8,0.4l-0.5,6.5c-0.4-0.1-0.9-0.2-1.4-0.3c-0.5-0.1-1-0.1-1.6-0.1
		c-1.1,0-2,0.2-2.7,0.6c-0.7,0.4-1.2,1-1.6,1.7c-0.4,0.7-0.6,1.4-0.7,2.2c-0.1,0.8-0.2,1.6-0.2,2.4v5h7.1v6.1h-7.1v24.6h-7.7V92.8z
		 M222.4,76.2c0-1.2,0.5-2.3,1.4-3.2c0.9-0.9,2.1-1.4,3.5-1.4c1.4,0,2.6,0.4,3.6,1.3c1,0.9,1.4,2,1.4,3.3c0,1.3-0.5,2.4-1.4,3.3
		c-1,0.9-2.1,1.3-3.6,1.3c-1.4,0-2.6-0.5-3.5-1.4C222.9,78.5,222.4,77.5,222.4,76.2z M223.5,86.7h7.7v30.7h-7.7V86.7z"/>
	<path class="st4" d="M239.8,86.7h7.3v4.9h0.1c0.7-1.5,1.9-2.9,3.6-4.1c1.7-1.2,3.7-1.8,6-1.8c2,0,3.7,0.4,5.2,1.1
		c1.4,0.7,2.6,1.6,3.5,2.8c0.9,1.2,1.6,2.5,2,4c0.4,1.5,0.6,3,0.6,4.6v19.2h-7.7v-17c0-0.9-0.1-1.8-0.2-2.8s-0.4-1.9-0.8-2.7
		c-0.4-0.8-1-1.4-1.8-2c-0.7-0.5-1.7-0.8-3-0.8c-1.2,0-2.3,0.2-3.2,0.7c-0.9,0.5-1.6,1.1-2.2,1.9c-0.6,0.8-1,1.7-1.3,2.7
		c-0.3,1-0.4,2-0.4,3v16.9h-7.7V86.7z"/>
</g>
</svg>
