<svg id="Capa_1" enable-background="new 0 0 499.999 499.999" height="512" viewBox="0 0 499.999 499.999" width="512" xmlns="http://www.w3.org/2000/svg"><path d="m492.354 189.682c-4.73-2.792-10.605-2.884-15.457-.275l-101.898 55.573v-41.855c0-8.636-6.989-15.625-15.625-15.625h-17.446c20.346-19.875 33.072-47.508 33.072-78.125-.001-60.303-49.073-109.375-109.375-109.375-44.681 0-83.076 27.01-100.033 65.498-17.21-20.74-42.846-34.248-71.842-34.248-51.697 0-93.75 42.053-93.75 93.75 0 26.037 10.7 49.593 27.895 66.597-16.397 7.307-27.895 23.696-27.895 42.778v218.75c0 25.848 21.027 46.875 46.875 46.875h312.499c8.636 0 15.625-6.989 15.625-15.625v-41.855l101.898 55.572c2.335 1.266 4.898 1.907 7.477 1.907 2.762 0 5.524-.732 7.98-2.182 4.73-2.823 7.645-7.935 7.645-13.443v-281.25c0-5.508-2.914-10.62-7.645-13.442zm-226.73-158.432c43.076 0 78.125 35.049 78.125 78.125s-35.049 78.125-78.125 78.125-78.124-35.049-78.124-78.125 35.049-78.125 78.124-78.125zm-76.303 156.25h-26.205c4.623-5.129 8.583-10.771 11.997-16.827 4.147 6.1 8.95 11.689 14.208 16.827zm-95.571-125c34.47 0 62.5 28.03 62.5 62.5s-28.03 62.5-62.5 62.5-62.5-28.03-62.5-62.5 28.03-62.5 62.5-62.5zm374.999 395.553-101.898-55.573c-4.852-2.625-10.727-2.548-15.457.275s-7.645 7.935-7.645 13.443v52.551h-296.874c-8.621 0-15.625-7.004-15.625-15.625v-218.75c0-8.621 7.004-15.625 15.625-15.625h296.874v52.551c0 5.508 2.914 10.62 7.645 13.443 4.761 2.792 10.635 2.899 15.457.275l101.898-55.572z"/></svg>